<svg width="32" height="24" viewBox="0 0 32 24" fill="none" xmlns="http://www.w3.org/2000/svg">
<mask id="mask0_19_1783" style="mask-type:luminance" maskUnits="userSpaceOnUse" x="0" y="0" width="32" height="24">
<rect width="32" height="24" fill="white"/>
</mask>
<g mask="url(#mask0_19_1783)">
<path fill-rule="evenodd" clip-rule="evenodd" d="M0 0V24H32V0H0Z" fill="#F7FCFF"/>
<mask id="mask1_19_1783" style="mask-type:luminance" maskUnits="userSpaceOnUse" x="0" y="0" width="32" height="24">
<path fill-rule="evenodd" clip-rule="evenodd" d="M0 0V24H32V0H0Z" fill="white"/>
</mask>
<g mask="url(#mask1_19_1783)">
<path fill-rule="evenodd" clip-rule="evenodd" d="M0 0V12H32V0H0Z" fill="#E31D1C"/>
<path fill-rule="evenodd" clip-rule="evenodd" d="M8.86841 10.5896C8.86841 10.5896 6.04272 9.45313 6.04272 6.37405C6.04272 3.29498 8.86841 2.1952 8.86841 2.1952C7.49507 1.84753 3.85096 2.15849 3.85096 6.37405C3.85096 10.5896 7.44001 11.3846 8.86841 10.5896ZM9.59238 10.0807L10.403 9.5913L11.2315 10.0807L11.0287 9.12571L11.7022 8.37237H10.7897L10.403 7.48067L10.0163 8.37237L9.10223 8.41101L9.77728 9.12571L9.59238 10.0807ZM13.3493 9.53665L12.5387 10.026L12.7236 9.07106L12.0485 8.35637L12.9626 8.31772L13.3493 7.42602L13.736 8.31772H14.6485L13.975 9.07106L14.1778 10.026L13.3493 9.53665ZM11.2872 5.76991L12.0978 5.28054L12.9263 5.76991L12.7235 4.81495L13.397 4.06161H12.4845L12.0978 3.16991L11.7111 4.06161L10.797 4.10025L11.4721 4.81495L11.2872 5.76991ZM9.36979 7.2227L8.55917 7.71207L8.74407 6.75711L8.06901 6.04242L8.98307 6.00377L9.36979 5.11207L9.75651 6.00377H10.669L9.99552 6.75711L10.1983 7.71207L9.36979 7.2227ZM13.9176 7.66822L14.7282 7.17885L15.5567 7.66822L15.3539 6.71326L16.0274 5.95992H15.1149L14.7282 5.06822L14.3415 5.95992L13.4274 5.99856L14.1025 6.71326L13.9176 7.66822Z" fill="#F1F9FF"/>
</g>
</g>
</svg>
